<svg width="390" height="76" viewBox="0 0 390 76" fill="none" xmlns="http://www.w3.org/2000/svg">
<g clip-path="url(#clip0_17_2270)">
<rect width="390" height="76" fill="white"/>
<rect x="57" y="76" width="57" height="76" transform="rotate(180 57 76)" fill="url(#paint0_linear_17_2270)"/>
<rect x="-106" y="-131" width="602" height="338" fill="url(#paint1_diamond_17_2270)" fill-opacity="0.72"/>
<path d="M316 77C319.947 51.9838 349.074 1.36108 434 -1" stroke="white"/>
<path d="M322 -3H375V53H322V-3Z" fill="url(#paint2_diamond_17_2270)" fill-opacity="0.8"/>
<path d="M341 23H394V79H341V23Z" fill="url(#paint3_diamond_17_2270)" fill-opacity="0.8"/>
<g filter="url(#filter0_f_17_2270)">
<path d="M102.119 97.8744C98.7171 100.458 94.2087 101.322 88.9086 100.606C83.6057 99.8889 77.548 97.5931 71.113 93.9083C58.2448 86.5397 43.9558 73.6674 31.3183 57.0272C18.6808 40.387 10.1161 23.1672 6.47196 8.79343C4.64962 1.60553 4.06399 -4.84613 4.79682 -10.1468C5.52926 -15.4447 7.57163 -19.5558 10.9738 -22.1396C14.376 -24.7234 18.8844 -25.5874 24.1845 -24.8709C29.4874 -24.1541 35.5451 -21.8583 41.9801 -18.1735C54.8483 -10.805 69.1373 2.0674 81.7748 18.7076C94.4124 35.3478 102.977 52.5676 106.621 66.9414C108.444 74.1293 109.029 80.5809 108.296 85.8816C107.564 91.1795 105.521 95.2906 102.119 97.8744Z" stroke="white"/>
</g>
<path d="M-16 -29H107V101H-16V-29Z" fill="url(#paint4_diamond_17_2270)" fill-opacity="0.8"/>
<g filter="url(#filter1_f_17_2270)">
<circle cx="295" cy="57" r="1" fill="white"/>
</g>
<circle cx="107" cy="21" r="0.8" stroke="white" stroke-width="0.4"/>
<g filter="url(#filter2_d_17_2270)">
<path d="M47.1873 31.664C48.2113 31.664 49.134 31.8293 49.9553 32.16C50.7766 32.4907 51.4166 32.96 51.8753 33.568C52.3446 34.1653 52.5793 34.8587 52.5793 35.648C52.5793 36.352 52.3926 36.9813 52.0193 37.536C51.6566 38.0907 51.15 38.544 50.4993 38.896C49.8486 39.248 49.0966 39.4773 48.2433 39.584V41.968H53.7153V43.696H40.6753V41.968H46.1153V39.584C45.2726 39.4773 44.5206 39.248 43.8593 38.896C43.2086 38.544 42.702 38.0907 42.3393 37.536C41.9766 36.9813 41.7953 36.352 41.7953 35.648C41.7953 34.8587 42.0246 34.1653 42.4833 33.568C42.9526 32.96 43.598 32.4907 44.4193 32.16C45.2406 31.8293 46.1633 31.664 47.1873 31.664ZM43.8913 35.648C43.8913 36.3627 44.19 36.928 44.7873 37.344C45.3953 37.7493 46.1953 37.952 47.1873 37.952C48.1686 37.952 48.958 37.7493 49.5553 37.344C50.1633 36.928 50.4673 36.3627 50.4673 35.648C50.4673 34.9333 50.1633 34.3733 49.5553 33.968C48.958 33.552 48.1686 33.344 47.1873 33.344C46.1953 33.344 45.3953 33.552 44.7873 33.968C44.19 34.3733 43.8913 34.9333 43.8913 35.648ZM57.5717 31.12V33.792H65.4117V35.472H55.4597V31.12H57.5717ZM53.8597 36.368H66.8997V38.048H53.8597V36.368ZM55.3157 38.88H65.3637V42.752H57.4757V43.6H65.7797V45.216H55.3317V41.248H63.2357V40.48H55.3157V38.88ZM71.6521 31.904C72.3987 31.904 73.0707 32.0587 73.6681 32.368C74.2761 32.6667 74.7507 33.088 75.0921 33.632C75.4441 34.176 75.6201 34.7893 75.6201 35.472C75.6201 36.1547 75.4441 36.768 75.0921 37.312C74.7507 37.856 74.2761 38.2827 73.6681 38.592C73.0707 38.8907 72.3987 39.04 71.6521 39.04C70.9054 39.04 70.2281 38.8907 69.6201 38.592C69.0121 38.2827 68.5321 37.856 68.1801 37.312C67.8387 36.768 67.6681 36.1547 67.6681 35.472C67.6681 34.7893 67.8387 34.176 68.1801 33.632C68.5321 33.088 69.0121 32.6667 69.6201 32.368C70.2281 32.0587 70.9054 31.904 71.6521 31.904ZM67.0921 40.768C68.8627 40.768 70.4841 40.7413 71.9561 40.688C73.4281 40.6347 74.8254 40.5067 76.1481 40.304L76.3081 41.84C74.9321 42.1067 73.5081 42.2827 72.0361 42.368C70.5641 42.4533 68.9961 42.496 67.3321 42.496L67.0921 40.768ZM69.7481 35.472C69.7481 36.0053 69.9241 36.432 70.2761 36.752C70.6387 37.0613 71.0974 37.216 71.6521 37.216C72.2067 37.216 72.6601 37.0613 73.0121 36.752C73.3641 36.4427 73.5401 36.016 73.5401 35.472C73.5401 34.928 73.3641 34.5013 73.0121 34.192C72.6601 33.8827 72.2067 33.728 71.6521 33.728C71.0974 33.728 70.6387 33.8827 70.2761 34.192C69.9241 34.5013 69.7481 34.928 69.7481 35.472ZM76.9321 30.944H79.0601V45.392H76.9321V30.944Z" fill="white"/>
<path d="M96.1239 37.664V39.344H93.0519V40.64H94.5559V45.376H92.4439V42.304H84.5559V40.64H86.1399V39.344H83.1159V37.664H96.1239ZM84.3959 34.08C84.3959 33.504 84.6093 33.0027 85.0359 32.576C85.4733 32.1493 86.0866 31.824 86.8759 31.6C87.6653 31.3653 88.5826 31.248 89.6279 31.248C90.6733 31.248 91.5906 31.3653 92.3799 31.6C93.1693 31.824 93.7773 32.1493 94.2039 32.576C94.6413 33.0027 94.8599 33.504 94.8599 34.08C94.8599 34.6667 94.6413 35.1733 94.2039 35.6C93.7773 36.0267 93.1693 36.3573 92.3799 36.592C91.6013 36.816 90.6839 36.928 89.6279 36.928C88.5719 36.928 87.6493 36.816 86.8599 36.592C86.0813 36.3573 85.4733 36.0267 85.0359 35.6C84.6093 35.1733 84.3959 34.6667 84.3959 34.08ZM86.5879 34.08C86.5879 34.88 87.6013 35.28 89.6279 35.28C91.6439 35.28 92.6519 34.88 92.6519 34.08C92.6519 33.6853 92.3906 33.3867 91.8679 33.184C91.3559 32.9813 90.6093 32.88 89.6279 32.88C88.6466 32.88 87.8946 32.9813 87.3719 33.184C86.8493 33.3867 86.5879 33.6853 86.5879 34.08ZM90.9559 40.64V39.344H88.2679V40.64H90.9559ZM100.156 31.936C100.882 31.936 101.532 32.1493 102.108 32.576C102.684 32.992 103.132 33.5893 103.452 34.368C103.783 35.1467 103.948 36.0533 103.948 37.088C103.948 38.1333 103.783 39.0507 103.452 39.84C103.132 40.6187 102.684 41.2213 102.108 41.648C101.532 42.064 100.882 42.272 100.156 42.272C99.431 42.272 98.7803 42.064 98.2043 41.648C97.6283 41.2213 97.175 40.6187 96.8443 39.84C96.5243 39.0507 96.3643 38.1333 96.3643 37.088C96.3643 36.0533 96.5243 35.1467 96.8443 34.368C97.175 33.5893 97.6283 32.992 98.2043 32.576C98.7803 32.1493 99.431 31.936 100.156 31.936ZM98.4123 37.088C98.4123 38.1333 98.567 38.9387 98.8763 39.504C99.1963 40.0587 99.623 40.336 100.156 40.336C100.7 40.336 101.127 40.0587 101.436 39.504C101.756 38.9387 101.916 38.1333 101.916 37.088C101.916 36.064 101.756 35.2747 101.436 34.72C101.127 34.1653 100.7 33.888 100.156 33.888C99.623 33.888 99.1963 34.1653 98.8763 34.72C98.567 35.2747 98.4123 36.064 98.4123 37.088ZM105.468 30.976H107.612V36.368H109.66V38.128H107.612V45.376H105.468V30.976Z" fill="#42B752"/>
</g>
<g filter="url(#filter3_d_17_2270)">
<path d="M305.808 42.222V39.94H302.238V33.374H304.086V35.292H309.378V33.374H311.226V39.94H307.67V42.222H312.458V43.734H301.048V42.222H305.808ZM309.378 38.47V36.748H304.086V38.47H309.378ZM323.14 32.576V45.218H321.264V38.582H319.332V37.084H321.264V32.576H323.14ZM312.976 33.654H318.66V38.414H314.852V40.78C315.767 40.7707 316.588 40.7427 317.316 40.696C318.044 40.64 318.777 40.5513 319.514 40.43L319.682 41.942C318.814 42.082 317.946 42.18 317.078 42.236C316.22 42.2827 315.207 42.306 314.04 42.306H312.99V36.944H316.812V35.124H312.976V33.654ZM336.531 32.576V37.378H338.267V38.904H336.531V45.176H334.655V32.576H336.531ZM326.493 41.62C327.959 40.864 329.079 39.982 329.853 38.974C330.637 37.9567 331.109 36.7573 331.267 35.376H327.207V33.878H333.171C333.171 35.9033 332.733 37.6813 331.855 39.212C330.987 40.7427 329.55 42.012 327.543 43.02L326.493 41.62ZM348.684 32.59V45.19H346.808V32.59H348.684ZM338.198 41.606C339.775 40.85 340.937 39.9727 341.684 38.974C342.44 37.9753 342.888 36.7713 343.028 35.362H338.87V33.878H344.946C344.946 35.25 344.768 36.4913 344.414 37.602C344.068 38.7033 343.471 39.716 342.622 40.64C341.772 41.564 340.62 42.376 339.164 43.076L338.198 41.606Z" fill="white"/>
</g>
<path d="M132 38.5H281" stroke="white" stroke-width="0.4" stroke-linecap="round"/>
</g>
<defs>
<filter id="filter0_f_17_2270" x="-0.0102539" y="-29.6128" width="113.114" height="134.96" filterUnits="userSpaceOnUse" color-interpolation-filters="sRGB">
<feFlood flood-opacity="0" result="BackgroundImageFix"/>
<feBlend mode="normal" in="SourceGraphic" in2="BackgroundImageFix" result="shape"/>
<feGaussianBlur stdDeviation="2" result="effect1_foregroundBlur_17_2270"/>
</filter>
<filter id="filter1_f_17_2270" x="293" y="55" width="4" height="4" filterUnits="userSpaceOnUse" color-interpolation-filters="sRGB">
<feFlood flood-opacity="0" result="BackgroundImageFix"/>
<feBlend mode="normal" in="SourceGraphic" in2="BackgroundImageFix" result="shape"/>
<feGaussianBlur stdDeviation="0.5" result="effect1_foregroundBlur_17_2270"/>
</filter>
<filter id="filter2_d_17_2270" x="38.6753" y="28.944" width="76.9849" height="22.448" filterUnits="userSpaceOnUse" color-interpolation-filters="sRGB">
<feFlood flood-opacity="0" result="BackgroundImageFix"/>
<feColorMatrix in="SourceAlpha" type="matrix" values="0 0 0 0 0 0 0 0 0 0 0 0 0 0 0 0 0 0 127 0" result="hardAlpha"/>
<feOffset dx="2" dy="2"/>
<feGaussianBlur stdDeviation="2"/>
<feComposite in2="hardAlpha" operator="out"/>
<feColorMatrix type="matrix" values="0 0 0 0 0 0 0 0 0 0 0 0 0 0 0 0 0 0 0.12 0"/>
<feBlend mode="normal" in2="BackgroundImageFix" result="effect1_dropShadow_17_2270"/>
<feBlend mode="normal" in="SourceGraphic" in2="effect1_dropShadow_17_2270" result="shape"/>
</filter>
<filter id="filter3_d_17_2270" x="299.048" y="30.576" width="55.6353" height="20.642" filterUnits="userSpaceOnUse" color-interpolation-filters="sRGB">
<feFlood flood-opacity="0" result="BackgroundImageFix"/>
<feColorMatrix in="SourceAlpha" type="matrix" values="0 0 0 0 0 0 0 0 0 0 0 0 0 0 0 0 0 0 127 0" result="hardAlpha"/>
<feOffset dx="2" dy="2"/>
<feGaussianBlur stdDeviation="2"/>
<feComposite in2="hardAlpha" operator="out"/>
<feColorMatrix type="matrix" values="0 0 0 0 0 0 0 0 0 0 0 0 0 0 0 0 0 0 0.12 0"/>
<feBlend mode="normal" in2="BackgroundImageFix" result="effect1_dropShadow_17_2270"/>
<feBlend mode="normal" in="SourceGraphic" in2="effect1_dropShadow_17_2270" result="shape"/>
</filter>
<linearGradient id="paint0_linear_17_2270" x1="114" y1="76" x2="65" y2="93" gradientUnits="userSpaceOnUse">
<stop stop-color="white"/>
<stop offset="1" stop-color="white" stop-opacity="0"/>
</linearGradient>
<radialGradient id="paint1_diamond_17_2270" cx="0" cy="0" r="1" gradientUnits="userSpaceOnUse" gradientTransform="translate(195 38) rotate(90) scale(169 301)">
<stop stop-color="#7CFA8E"/>
<stop offset="1" stop-color="#D9D9D9" stop-opacity="0"/>
</radialGradient>
<radialGradient id="paint2_diamond_17_2270" cx="0" cy="0" r="1" gradientUnits="userSpaceOnUse" gradientTransform="translate(348.5 25) rotate(90) scale(28 26.5)">
<stop stop-color="#D0EC90"/>
<stop offset="1" stop-color="white" stop-opacity="0"/>
</radialGradient>
<radialGradient id="paint3_diamond_17_2270" cx="0" cy="0" r="1" gradientUnits="userSpaceOnUse" gradientTransform="translate(367.5 51) rotate(90) scale(28 26.5)">
<stop stop-color="#D0EC90"/>
<stop offset="1" stop-color="white" stop-opacity="0"/>
</radialGradient>
<radialGradient id="paint4_diamond_17_2270" cx="0" cy="0" r="1" gradientUnits="userSpaceOnUse" gradientTransform="translate(45.5 36) rotate(90) scale(65 61.5)">
<stop offset="0.145833" stop-color="#42B752"/>
<stop offset="1" stop-color="white" stop-opacity="0"/>
</radialGradient>
<clipPath id="clip0_17_2270">
<rect width="390" height="76" fill="white"/>
</clipPath>
</defs>
</svg>
