<svg xmlns="http://www.w3.org/2000/svg" width="24" height="25" viewBox="0 0 24 25" fill="none">
  <path fill-rule="evenodd" clip-rule="evenodd" d="M11.0092 1.06303C11.0092 0.515812 11.4528 0.0722046 12 0.0722046C18.6274 0.0722046 24 5.44478 24 12.0722C24 18.6996 18.6274 24.0722 12 24.0722C5.37258 24.0722 0 18.6996 0 12.0722C0 11.525 0.443608 11.0814 0.990826 11.0814C1.53804 11.0814 1.98165 11.525 1.98165 12.0722C1.98165 17.6051 6.46702 22.0906 12 22.0906C17.5329 22.0906 22.0183 17.6051 22.0183 12.0722C22.0183 6.53922 17.5329 2.05386 12 2.05386C11.4528 2.05386 11.0092 1.61025 11.0092 1.06303Z" fill="black"/>
  <path fill-rule="evenodd" clip-rule="evenodd" d="M12.2417 16.5207C12.2405 16.5222 12.2393 16.5237 12.2382 16.5253L12.2378 16.5257C12.2378 16.5257 12.2382 16.5253 12.2389 16.5243L12.2402 16.5225L12.2411 16.5213L12.2417 16.5207ZM20.5691 16.5253L20.5647 16.5197C20.5585 16.5119 20.5463 16.4969 20.5281 16.4757C20.4916 16.4331 20.4314 16.3659 20.3475 16.282C20.1794 16.1139 19.9197 15.8823 19.5696 15.6489C18.8734 15.1848 17.8229 14.7144 16.4037 14.7144C14.9844 14.7144 13.9339 15.1848 13.2377 15.6489C12.8876 15.8823 12.6279 16.1139 12.4598 16.282C12.376 16.3659 12.3157 16.4331 12.2792 16.4757C12.261 16.4969 12.2488 16.5119 12.2426 16.5197L12.2382 16.5253C11.9088 16.9584 11.291 17.0451 10.855 16.7181C10.4173 16.3898 10.3285 15.7687 10.6569 15.331L11.4495 15.9254C10.6569 15.331 10.6572 15.3306 10.6574 15.3302L10.6581 15.3294L10.6594 15.3276L10.6626 15.3234L10.6709 15.3126C10.6773 15.3043 10.6854 15.294 10.6952 15.2818C10.7148 15.2573 10.7413 15.225 10.7746 15.186C10.8414 15.1082 10.9359 15.0034 11.0585 14.8808C11.3033 14.6361 11.6628 14.3172 12.1385 14.0001C13.0936 13.3634 14.5201 12.7328 16.4037 12.7328C18.2872 12.7328 19.7137 13.3634 20.6689 14.0001C21.1445 14.3172 21.5041 14.6361 21.7488 14.8808C21.8714 15.0034 21.966 15.1082 22.0327 15.186C22.0661 15.225 22.0925 15.2573 22.1121 15.2818C22.1219 15.294 22.13 15.3043 22.1364 15.3126L22.1447 15.3234L22.1479 15.3276L22.1493 15.3294L22.1499 15.3302C22.1502 15.3306 22.1505 15.331 21.3578 15.9254L22.1505 15.331C22.4788 15.7687 22.3901 16.3898 21.9523 16.7181C21.5163 17.0451 20.8985 16.9584 20.5691 16.5253ZM20.5695 16.5257C20.5695 16.5257 20.5695 16.5257 20.5695 16.5257L20.5695 16.5257Z" fill="black"/>
  <path fill-rule="evenodd" clip-rule="evenodd" d="M3.4499 2.28925C3.25543 2.46778 3.08257 2.7648 3.08257 3.26492C3.08257 3.81214 2.63896 4.25575 2.09174 4.25575C1.54453 4.25575 1.10092 3.81214 1.10092 3.26492C1.10092 2.249 1.47851 1.40899 2.10974 0.829481C2.72515 0.264495 3.52316 1.25338e-05 4.29356 4.45474e-10C5.06396 -1.25329e-05 5.86198 0.264444 6.4774 0.829419C7.10864 1.40891 7.48624 2.24892 7.48624 3.26484C7.48624 3.99589 7.29404 4.57076 6.97717 5.04866C6.71748 5.44033 6.38064 5.74657 6.14069 5.96472C6.11404 5.98895 6.08858 6.0121 6.06456 6.03415C5.79551 6.28115 5.62367 6.45752 5.50034 6.67588C5.38722 6.87615 5.2844 7.16951 5.2844 7.66852C5.2844 8.21574 4.8408 8.65935 4.29358 8.65935C3.74636 8.65935 3.30275 8.21574 3.30275 7.66852C3.30275 6.86808 3.47516 6.23198 3.77489 5.70132C4.0644 5.18874 4.44302 4.8327 4.72443 4.57436C4.7417 4.55851 4.75852 4.54308 4.77491 4.52804C5.05302 4.27296 5.20819 4.13063 5.32558 3.95359C5.42156 3.80884 5.50459 3.61668 5.50459 3.26484C5.50459 2.76473 5.33172 2.46772 5.13727 2.28921C4.92701 2.09618 4.62411 1.98165 4.29359 1.98165C3.96308 1.98166 3.66017 2.0962 3.4499 2.28925Z" fill="black"/>
  <path fill-rule="evenodd" clip-rule="evenodd" d="M4.9678 10.234C5.37436 10.6003 5.40701 11.2268 5.04073 11.6333L5.02972 11.6455C4.66344 12.0521 4.03693 12.0847 3.63038 11.7185C3.22382 11.3522 3.19117 10.7257 3.55745 10.3191L3.56846 10.3069C3.93474 9.90035 4.56125 9.8677 4.9678 10.234Z" fill="black"/>
  <path d="M18.055 8.7695C17.7511 8.7695 17.5046 8.52305 17.5046 8.21904C17.5046 7.91503 17.7511 7.66858 18.055 7.66858C18.359 7.66858 18.6055 7.91503 18.6055 8.21904C18.6055 8.52305 18.359 8.7695 18.055 8.7695Z" fill="black"/>
  <path fill-rule="evenodd" clip-rule="evenodd" d="M18.055 8.65939C18.2982 8.65939 18.4954 8.46228 18.4954 8.21902C18.4954 7.97576 18.2982 7.77865 18.055 7.77865C17.8118 7.77865 17.6147 7.97576 17.6147 8.21902C17.6147 8.46228 17.8118 8.65939 18.055 8.65939ZM16.5138 8.21902C16.5138 7.36774 17.2039 6.67773 18.055 6.67773C18.9062 6.67773 19.5963 7.36774 19.5963 8.21902C19.5963 9.0703 18.9062 9.7603 18.055 9.7603C17.2039 9.7603 16.5138 9.0703 16.5138 8.21902Z" fill="black"/>
  <path d="M10.3486 8.7695C10.0447 8.7695 9.79816 8.52305 9.79816 8.21904C9.79816 7.91503 10.0447 7.66858 10.3486 7.66858C10.6526 7.66858 10.8991 7.91503 10.8991 8.21904C10.8991 8.52305 10.6526 8.7695 10.3486 8.7695Z" fill="black"/>
  <path fill-rule="evenodd" clip-rule="evenodd" d="M10.3486 8.65939C10.5918 8.65939 10.789 8.46228 10.789 8.21902C10.789 7.97576 10.5918 7.77865 10.3486 7.77865C10.1054 7.77865 9.90826 7.97576 9.90826 8.21902C9.90826 8.46228 10.1054 8.65939 10.3486 8.65939ZM8.80734 8.21902C8.80734 7.36774 9.49749 6.67773 10.3486 6.67773C11.1998 6.67773 11.8899 7.36774 11.8899 8.21902C11.8899 9.0703 11.1998 9.7603 10.3486 9.7603C9.49749 9.7603 8.80734 9.0703 8.80734 8.21902Z" fill="black"/>
</svg>