<svg xmlns="http://www.w3.org/2000/svg" width="26" height="26" viewBox="0 0 26 26" fill="none">
  <path fill-rule="evenodd" clip-rule="evenodd" d="M21.7698 19.311C22.0137 19.0402 22.431 19.0184 22.7017 19.2623L22.7115 19.2711C22.9823 19.5151 23.004 19.9323 22.7601 20.2031C22.5162 20.4738 22.0989 20.4956 21.8282 20.2517L21.8184 20.2429C21.5477 19.999 21.5259 19.5817 21.7698 19.311Z" fill="black"/>
  <path fill-rule="evenodd" clip-rule="evenodd" d="M20.4413 17.9913C20.6852 17.7205 21.1024 17.6988 21.3732 17.9427L21.383 17.9515C21.6537 18.1954 21.6755 18.6126 21.4316 18.8834C21.1877 19.1542 20.7704 19.1759 20.4997 18.932L20.4899 18.9232C20.2191 18.6793 20.1974 18.2621 20.4413 17.9913Z" fill="black"/>
  <path fill-rule="evenodd" clip-rule="evenodd" d="M20.4413 20.6307C20.6852 20.36 21.1024 20.3382 21.3732 20.5821L21.383 20.5909C21.6537 20.8349 21.6755 21.2521 21.4316 21.5229C21.1877 21.7936 20.7704 21.8154 20.4997 21.5715L20.4899 21.5627C20.2191 21.3188 20.1974 20.9015 20.4413 20.6307Z" fill="black"/>
  <path fill-rule="evenodd" clip-rule="evenodd" d="M19.1304 19.3109C19.3743 19.0402 19.7916 19.0184 20.0623 19.2624L20.0721 19.2712C20.3428 19.5151 20.3646 19.9323 20.1206 20.2031C19.8767 20.4739 19.4595 20.4956 19.1887 20.2517L19.1789 20.2429C18.9082 19.9989 18.8864 19.5817 19.1304 19.3109Z" fill="black"/>
  <path fill-rule="evenodd" clip-rule="evenodd" d="M14.3417 17.7731C14.7061 17.7731 15.0016 18.0685 15.0016 18.4329V21.0724C15.0016 21.4368 14.7061 21.7323 14.3417 21.7323C13.9772 21.7323 13.6818 21.4368 13.6818 21.0724V18.4329C13.6818 18.0685 13.9772 17.7731 14.3417 17.7731Z" fill="black"/>
  <path fill-rule="evenodd" clip-rule="evenodd" d="M12.362 19.7526C12.362 19.3882 12.6574 19.0927 13.0219 19.0927H15.6614C16.0258 19.0927 16.3212 19.3882 16.3212 19.7526C16.3212 20.117 16.0258 20.4125 15.6614 20.4125H13.0219C12.6574 20.4125 12.362 20.117 12.362 19.7526Z" fill="black"/>
  <path fill-rule="evenodd" clip-rule="evenodd" d="M10.7418 15.7019C10.9929 14.8078 11.8582 14.2537 12.765 14.2537H21.974C22.88 14.2537 23.742 14.8033 24.0068 15.6863L24.0068 15.6864C24.2942 16.6454 24.8479 18.4652 25.8664 21.7368L25.2363 21.9329L25.8664 21.7368C26.3107 23.164 25.5957 24.4445 24.4801 24.9802C23.3395 25.5279 21.8601 25.2802 20.7878 23.9406C20.56 23.6561 20.606 23.2409 20.8905 23.0131C21.175 22.7854 21.5903 22.8314 21.8181 23.1159C22.5336 24.0098 23.3602 24.054 23.9089 23.7905C24.4827 23.515 24.8404 22.8811 24.6063 22.1291C23.587 18.8549 23.0319 17.0304 22.7426 16.0653C22.6681 15.8168 22.3807 15.5735 21.974 15.5735H12.765C12.3591 15.5735 12.0803 15.8168 12.0123 16.0588C11.4117 18.1969 10.8741 20.079 10.2358 22.1291C10.0017 22.8811 10.3594 23.515 10.9332 23.7905C11.482 24.054 12.3085 24.0098 13.0241 23.1159C13.2518 22.8314 13.6671 22.7854 13.9516 23.0131C14.2361 23.2409 14.2821 23.6561 14.0543 23.9406C12.982 25.2802 11.5026 25.5279 10.362 24.9802C9.24643 24.4445 8.53141 23.164 8.97574 21.7368C9.60828 19.705 10.1418 17.8373 10.7418 15.7019L10.7418 15.7019Z" fill="black"/>
  <path fill-rule="evenodd" clip-rule="evenodd" d="M13.9018 14.2537C14.2662 14.2537 14.5616 14.5492 14.5616 14.9136V15.7293C14.5835 15.7497 14.6279 15.7832 14.7122 15.8253C14.9211 15.9297 15.2557 16.0134 15.6614 16.0134H19.1807C19.5864 16.0134 19.921 15.9297 20.1299 15.8253C20.2142 15.7832 20.2586 15.7497 20.2805 15.7293V14.9136C20.2805 14.5492 20.5759 14.2537 20.9403 14.2537C21.3048 14.2537 21.6002 14.5492 21.6002 14.9136V15.7934C21.6002 16.421 21.1087 16.8114 20.7201 17.0057C20.292 17.2198 19.7468 17.3331 19.1807 17.3331H15.6614C15.0953 17.3331 14.5501 17.2198 14.122 17.0057C13.7335 16.8115 13.2419 16.421 13.2419 15.7934V14.9136C13.2419 14.5492 13.5373 14.2537 13.9018 14.2537ZM20.2994 15.7074C20.2997 15.7075 20.2985 15.7098 20.295 15.7141C20.2973 15.7095 20.2991 15.7074 20.2994 15.7074ZM14.5427 15.7074C14.543 15.7074 14.5448 15.7095 14.5471 15.7141C14.5436 15.7098 14.5424 15.7075 14.5427 15.7074Z" fill="black"/>
  <path d="M9.8421 11.1053C12.6325 11.1053 14.8947 8.84312 14.8947 6.05263C14.8947 3.26214 12.6325 1 9.8421 1C7.05161 1 4.78947 3.26214 4.78947 6.05263C4.78947 8.84312 7.05161 11.1053 9.8421 11.1053Z" stroke="black" stroke-width="1.8" stroke-linecap="round" stroke-linejoin="round"/>
  <path d="M1 19.9474C1 15.064 4.95875 11.1053 9.8421 11.1053C11.9074 11.1053 13.8073 11.8134 15.3123 13" stroke="black" stroke-width="1.8" stroke-linecap="round" stroke-linejoin="round"/>
</svg>