<svg xmlns="http://www.w3.org/2000/svg" width="26" height="24" viewBox="0 0 26 24" fill="none">
  <path d="M25 12.52V21.88C25 22.2777 24.6777 22.6 24.28 22.6H14.92C14.5223 22.6 14.2 22.2777 14.2 21.88V12.52C14.2 12.1223 14.5223 11.8 14.92 11.8H24.28C24.6777 11.8 25 12.1223 25 12.52Z" stroke="black" stroke-width="1.8" stroke-linecap="round" stroke-linejoin="round"/>
  <path d="M18.9016 14.8884C18.4221 14.5888 17.8 14.9336 17.8 15.499V18.901C17.8 19.4664 18.4221 19.8112 18.9016 19.5116L21.6231 17.8106C22.0743 17.5286 22.0743 16.8714 21.6231 16.5894L18.9016 14.8884Z" stroke="black" stroke-width="1.8" stroke-linecap="round" stroke-linejoin="round"/>
  <path d="M1 9.4V1.72C1 1.32236 1.32236 1 1.72 1H9.13366C9.30552 1 9.47172 1.06149 9.60222 1.17334L13.3978 4.42666C13.5282 4.53851 13.6944 4.6 13.8664 4.6H24.28C24.6777 4.6 25 4.92236 25 5.32V8.2M1 9.4V19.48C1 19.8777 1.32236 20.2 1.72 20.2H10.6M1 9.4H10.6" stroke="black" stroke-width="1.8" stroke-linecap="round" stroke-linejoin="round"/>
</svg>