<svg xmlns="http://www.w3.org/2000/svg" width="24" height="24" viewBox="0 0 24 24" fill="none">
  <path fill-rule="evenodd" clip-rule="evenodd" d="M12 14.4C10.7228 14.4 9.81817 15.4436 9.81817 16.56V21.6C9.81817 22.2627 9.32975 22.8 8.72726 22.8C8.12477 22.8 7.63635 22.2627 7.63635 21.6V16.56C7.63635 13.9649 9.66208 12 12 12C14.3379 12 16.3636 13.9649 16.3636 16.56V21.6C16.3636 22.2627 15.8752 22.8 15.2727 22.8C14.6702 22.8 14.1818 22.2627 14.1818 21.6V16.56C14.1818 15.4436 13.2771 14.4 12 14.4Z" fill="url(#paint0_linear_22_785)"/>
  <path fill-rule="evenodd" clip-rule="evenodd" d="M12.0001 2.55107L1.72258 10.5784C1.23133 10.9621 0.550325 10.8351 0.201511 10.2947C-0.147303 9.75437 -0.0318368 9.00526 0.459412 8.62156L11.0758 0.329509C11.6382 -0.109775 12.3618 -0.109897 12.9244 0.329508C12.9244 0.329521 12.9244 0.329534 12.9244 0.329548L23.5408 8.62156C24.032 9.00526 24.1475 9.75437 23.7987 10.2947C23.4499 10.8351 22.7688 10.9621 22.2776 10.5784L12.0001 2.55107Z" fill="#96E6A1"/>
  <path fill-rule="evenodd" clip-rule="evenodd" d="M3.27273 10.8C3.87523 10.8 4.36364 11.3373 4.36364 12V20.64C4.36364 21.0545 4.74109 21.6 5.45455 21.6H18.5455C19.2589 21.6 19.6364 21.0545 19.6364 20.64V12C19.6364 11.3373 20.1248 10.8 20.7273 10.8C21.3298 10.8 21.8182 11.3373 21.8182 12V20.64C21.8182 22.6116 20.242 24 18.5455 24H5.45455C3.75804 24 2.18182 22.6116 2.18182 20.64V12C2.18182 11.3373 2.67024 10.8 3.27273 10.8Z" fill="url(#paint1_linear_22_785)"/>
  <defs>
    <linearGradient id="paint0_linear_22_785" x1="12" y1="12" x2="12" y2="22.8" gradientUnits="userSpaceOnUse">
      <stop stop-color="#96E6A1"/>
      <stop offset="1" stop-color="#D0EC90"/>
    </linearGradient>
    <linearGradient id="paint1_linear_22_785" x1="12" y1="10.8" x2="12" y2="24" gradientUnits="userSpaceOnUse">
      <stop stop-color="#96E6A1"/>
      <stop offset="1" stop-color="#D0EC90"/>
    </linearGradient>
  </defs>
</svg>