<svg xmlns="http://www.w3.org/2000/svg" width="78" height="100" viewBox="0 0 78 100" fill="none">
  <g filter="url(#filter0_f_47_2741)">
    <path d="M68 89.5C68 93.0899 57.031 96 43.5 96C29.969 96 19 93.0899 19 89.5C19 85.9101 29.969 83 43.5 83C57.031 83 68 85.9101 68 89.5Z" fill="#BEDCC2"/>
  </g>
  <path d="M21.6613 64C14.1613 62.4998 0.999955 58.5 5.9999 47.9999C4.49995 39.9999 9.30726 37.3078 11.9999 40.0001C13.9999 41.9998 8.49994 46.9998 21.4999 49.5007L65.4999 51.0004C72.4999 54.5002 79.4999 62.5006 75.9999 67.5004C73.1614 71.5551 64.6666 68.5004 61.9999 66.0004C63.4999 67.5004 65.9999 68.7832 67.4999 69.2832C67.4999 81.7832 62.9999 88.0004 54.4999 88.5004C47.6999 88.9004 44.9999 84.6671 44.4999 82.5004L41.8231 82.0542C41.4231 87.2542 36.3332 89.1671 33.9999 89.0004C22.505 86.8451 20.9029 72.1622 21.6613 64Z" fill="#FAFFED"/>
  <path fill-rule="evenodd" clip-rule="evenodd" d="M9.71709 37.9893C10.8128 37.9909 11.8653 38.4513 12.707 39.293C13.5483 40.1341 13.5294 41.2545 13.4992 42.0161C13.494 42.1461 13.4881 42.272 13.4822 42.3944C13.4487 43.0975 13.4207 43.6865 13.589 44.2966C13.9224 45.5051 15.2341 47.265 21.6126 48.5039L65.752 50.0084L65.9471 50.106C69.5769 51.9207 73.2089 54.8974 75.5012 58.1067C77.7497 61.2546 78.9548 65.0231 76.8191 68.0739C75.0275 70.6331 71.6111 70.7704 68.7371 70.1885C68.6557 70.172 68.5743 70.1549 68.4929 70.1371C68.3943 76.0704 67.2557 80.6966 65.0113 83.9586C62.6242 87.4279 59.0704 89.2333 54.5587 89.4987C47.8021 89.8961 44.6457 86.0168 43.7186 83.384L42.6712 83.2094C42.1903 85.5878 40.7886 87.2761 39.2022 88.3644C37.4246 89.584 35.3476 90.0992 33.9287 89.9978L33.8718 89.9938L33.8157 89.9833C27.5903 88.816 24.1033 84.2395 22.2922 79.0842C20.6124 74.3026 20.3147 68.8907 20.5939 64.8001C16.9076 64.0099 12.0736 62.6255 8.57309 60.1965C6.66884 58.8752 5.07899 57.19 4.33784 55.0453C3.614 52.9507 3.74735 50.5567 4.96005 47.8656C4.27666 43.8544 5.08809 40.8984 6.72442 39.2795C7.56849 38.4444 8.62175 37.9876 9.71709 37.9893ZM20.6758 62.7711C20.6788 62.7331 20.6822 62.6953 20.6862 62.6577C20.7325 62.2178 20.8454 61.8013 21.0513 61.1836L22.9831 61.6827C22.8534 62.3798 22.7408 63.192 22.6571 64.0925C22.2863 68.0825 22.4991 73.6389 24.1791 78.4213C25.847 83.1689 28.8917 87.0005 34.1248 88.0062C35.0485 88.0542 36.6482 87.6912 38.0708 86.7152C39.2847 85.8825 40.3202 84.6395 40.6965 82.8803L38.3355 82.4868L38.6643 80.514L45.324 81.6239L45.4743 82.2755C45.8789 84.0288 48.1889 87.8699 54.4412 87.5021C58.4295 87.2675 61.3756 85.7143 63.3636 82.825C65.3107 79.995 66.4141 75.7739 66.4951 69.9772C64.8981 69.3348 62.7158 68.1304 61.2928 66.7075L62.6839 65.2709C63.8486 66.3628 66.4536 67.6856 69.134 68.2283C71.8836 68.785 74.1339 68.4223 75.1807 66.9269C76.5451 64.9779 76.0002 62.2463 73.8737 59.2691C71.8307 56.4088 68.5509 53.6856 65.2453 51.9923L21.3878 50.4974L21.311 50.4827C14.7554 49.2215 12.3263 47.2402 11.661 44.8284C11.3999 43.882 11.4495 42.9374 11.4858 42.2456C11.4915 42.1361 11.497 42.0328 11.5008 41.937C11.5331 41.1205 11.4517 40.866 11.2929 40.7073C10.7884 40.2028 10.2302 39.99 9.71405 39.9893C9.19758 39.9885 8.63787 40.1999 8.13102 40.7013C7.10853 41.7128 6.26536 43.9891 6.98281 47.8156L7.04284 48.1357L6.9028 48.4298C5.74169 50.8682 5.6825 52.8131 6.22815 54.3921C6.78291 55.9974 8.01467 57.3747 9.71327 58.5533C12.7852 60.6849 17.1199 61.9868 20.6758 62.7711Z" fill="#42B752"/>
  <path d="M47.8091 64.4796C49.0777 71.3716 45.738 77.7627 40.3499 78.7544C34.9617 79.7461 29.5654 74.963 28.2969 68.0709C27.0283 61.1789 30.368 54.7878 35.7561 53.7961C41.1443 52.8044 46.5406 57.5875 47.8091 64.4796Z" fill="url(#paint0_linear_47_2741)"/>
  <path fill-rule="evenodd" clip-rule="evenodd" d="M30.8082 5.36566C30.0721 2.288 27.3032 0 24 0C20.134 0 17 3.13401 17 7C17 9.27859 18.0887 11.3029 19.7743 12.5811C14.9332 17.5042 12 23.9476 12 31C12 46.464 26.103 59 43.5 59C60.897 59 75 46.464 75 31C75 25.2498 73.05 19.9044 69.7057 15.4579C72.2282 14.3998 74 11.9068 74 9C74 5.13401 70.866 2 67 2C63.7333 2 60.9892 4.2377 60.217 7.2639C55.3721 4.56219 49.6413 3 43.5 3C38.9845 3 34.6909 3.84456 30.8082 5.36566Z" fill="#FAFFED"/>
  <path fill-rule="evenodd" clip-rule="evenodd" d="M29.3977 8.06625L28.863 5.83089C28.3373 3.63258 26.3568 2 24 2C21.2386 2 19 4.23858 19 7C19 8.62633 19.7743 10.0711 20.9828 10.9875L22.795 12.3618L21.2003 13.9834C16.6895 18.5706 14 24.5234 14 31C14 45.1445 26.9796 57 43.5 57C60.0204 57 73 45.1445 73 31C73 25.715 71.2106 20.7861 68.1073 16.6601L66.5634 14.6072L68.9321 13.6136C70.7378 12.8561 72 11.0732 72 9C72 6.23858 69.7614 4 67 4C64.6694 4 62.7066 5.59647 62.1549 7.75842L61.5124 10.2762L59.2429 9.01066C54.6968 6.47557 49.3015 5 43.5 5C39.2344 5 35.1882 5.79772 31.5377 7.22785L29.3977 8.06625ZM30.1075 3.57718C28.9086 1.44238 26.6227 0 24 0C20.134 0 17 3.13401 17 7C17 8.62985 17.557 10.1296 18.4911 11.3193C18.8629 11.7928 19.2944 12.2172 19.7743 12.5811C19.3036 13.0598 18.8509 13.5529 18.4172 14.0595C14.3905 18.7631 12 24.6334 12 31C12 46.464 26.103 59 43.5 59C60.897 59 75 46.464 75 31C75 25.9527 73.4976 21.2173 70.8686 17.1279C70.5025 16.5584 70.1145 16.0014 69.7057 15.4579C70.3312 15.1955 70.9105 14.845 71.428 14.4218C72.9979 13.1381 74 11.1861 74 9C74 5.13401 70.866 2 67 2C64.4477 2 62.2145 3.36595 60.9914 5.40669C60.6491 5.97794 60.3859 6.60206 60.217 7.2639C59.6257 6.93416 59.0212 6.6214 58.4043 6.32638C53.9671 4.20414 48.8918 3 43.5 3C39.706 3 36.0686 3.59623 32.7 4.68903C32.0594 4.89684 31.4286 5.12262 30.8082 5.36566C30.6565 4.73162 30.4186 4.13109 30.1075 3.57718Z" fill="#42B752"/>
  <path d="M30.5 24.3333C30.5 25.622 29.7165 26.6667 28.75 26.6667C27.7835 26.6667 27 25.622 27 24.3333C27 23.0447 27.7835 22 28.75 22C29.7165 22 30.5 23.0447 30.5 24.3333Z" fill="#42B752"/>
  <path d="M33.9319 27.5172C34.9988 27.2313 36.0376 27.6483 36.252 28.4485C36.4664 29.2487 35.7753 30.1291 34.7083 30.415C33.6414 30.7009 32.6027 30.2839 32.3883 29.4837C32.1738 28.6835 32.865 27.8031 33.9319 27.5172Z" fill="#42B752"/>
  <path d="M44.5 26.3333C44.5 27.622 43.7165 28.6667 42.75 28.6667C41.7835 28.6667 41 27.622 41 26.3333C41 25.0447 41.7835 24 42.75 24C43.7165 24 44.5 25.0447 44.5 26.3333Z" fill="#42B752"/>
  <path fill-rule="evenodd" clip-rule="evenodd" d="M5.36175 47.414C5.34487 47.3748 5.32841 47.3366 5.31226 47.2995L6.68776 46.7012C6.69843 46.7257 6.709 46.7501 6.71949 46.7742C6.96401 47.3374 7.16279 47.7952 7.58265 48.2016C8.00651 48.6118 8.72646 49.0277 10.1233 49.2605C10.5319 49.3286 10.8079 49.7151 10.7398 50.1236C10.6717 50.5322 10.2853 50.8082 9.87671 50.7401C8.27355 50.4729 7.24153 49.959 6.53939 49.2794C5.89827 48.6588 5.59182 47.9478 5.36175 47.414Z" fill="#42B752"/>
  <path fill-rule="evenodd" clip-rule="evenodd" d="M8.85286 53.7354C5.91382 53.1476 4.57902 51.2568 4.27881 50.206L5.72109 49.7939C5.86533 50.2988 6.75275 51.7857 9.14704 52.2646C9.55321 52.3458 9.81662 52.7409 9.73539 53.1471C9.65415 53.5532 9.25903 53.8167 8.85286 53.7354Z" fill="#42B752"/>
  <path d="M8.59916 31.9624C8.57841 31.5487 8.22623 31.2302 7.81254 31.2509C7.39884 31.2717 7.08029 31.6239 7.10104 32.0376L8.59916 31.9624ZM7.10104 32.0376L7.29702 35.9457L8.79513 35.8706L8.59916 31.9624L7.10104 32.0376Z" fill="#42B752"/>
  <path d="M2.39297 33.9644C2.09392 33.6778 1.61916 33.6879 1.33255 33.9869C1.04594 34.286 1.05603 34.7607 1.35508 35.0473L2.39297 33.9644ZM1.35508 35.0473L4.30304 37.8727L5.34094 36.7897L2.39297 33.9644L1.35508 35.0473Z" fill="#42B752"/>
  <path d="M1.00349 39.9072C0.58928 39.9053 0.251935 40.2395 0.250008 40.6537C0.248081 41.0679 0.582302 41.4053 0.996511 41.4072L1.00349 39.9072ZM0.996511 41.4072L3.21771 41.4176L3.22469 39.9176L1.00349 39.9072L0.996511 41.4072Z" fill="#42B752"/>
  <defs>
    <filter id="filter0_f_47_2741" x="15" y="79" width="57" height="21" filterUnits="userSpaceOnUse" color-interpolation-filters="sRGB">
      <feFlood flood-opacity="0" result="BackgroundImageFix"/>
      <feBlend mode="normal" in="SourceGraphic" in2="BackgroundImageFix" result="shape"/>
      <feGaussianBlur stdDeviation="2" result="effect1_foregroundBlur_47_2741"/>
    </filter>
    <linearGradient id="paint0_linear_47_2741" x1="35.7561" y1="53.7961" x2="40.3499" y2="78.7544" gradientUnits="userSpaceOnUse">
      <stop stop-color="#B3E6BA" stop-opacity="0.4"/>
      <stop offset="1" stop-color="#64C071"/>
    </linearGradient>
  </defs>
</svg>