<svg width="390" height="76" viewBox="0 0 390 76" fill="none" xmlns="http://www.w3.org/2000/svg">
<g clip-path="url(#clip0_8_2730)">
<rect width="390" height="76" fill="white"/>
<rect width="390" height="76" fill="url(#paint0_linear_8_2730)"/>
<g filter="url(#filter0_f_8_2730)">
<path d="M417.876 78.3829C420.012 74.6832 420.303 70.1019 418.926 64.9338C417.549 59.7629 414.511 54.0415 410.047 48.1203C401.121 36.2794 386.556 23.7202 368.46 13.2727C350.364 2.82519 332.205 -3.50893 317.487 -5.31897C310.128 -6.22412 303.653 -5.99482 298.487 -4.60205C293.323 -3.21001 289.501 -0.667481 287.365 3.03227C285.229 6.73201 284.938 11.3132 286.314 16.4814C287.691 21.6523 290.73 27.3737 295.194 33.2949C304.12 45.1357 318.685 57.6949 336.781 68.1425C354.876 78.59 373.036 84.9241 387.753 86.7341C395.113 87.6393 401.587 87.41 406.754 86.0172C411.918 84.6252 415.74 82.0826 417.876 78.3829Z" stroke="white"/>
</g>
<path opacity="0.4" d="M120.382 -9.21201C122.061 -6.30415 121.829 -2.37175 119.784 2.3552C117.743 7.07139 113.936 12.48 108.647 18.2402C98.0722 29.7561 81.6534 42.5911 61.8936 53.9994C42.1338 65.4077 22.8089 73.2093 7.54866 76.6092C-0.0844915 78.3098 -6.67204 78.9025 -11.7767 78.3117C-16.893 77.7194 -20.4144 75.954 -22.0933 73.0461C-23.7722 70.1383 -23.5404 66.2059 -21.4951 61.4789C-19.4545 56.7627 -15.6474 51.3541 -10.358 45.5939C0.21645 34.078 16.6353 21.243 36.3951 9.83471C56.1549 -1.57361 75.4797 -9.37524 90.74 -12.7751C98.3731 -14.4757 104.961 -15.0684 110.065 -14.4775C115.182 -13.8853 118.703 -12.1199 120.382 -9.21201Z" stroke="white"/>
<path d="M49.8769 -35.8316C52.1726 -33.5359 52.9424 -29.803 52.2138 -24.8675C51.4869 -19.9435 49.2807 -13.9277 45.7748 -7.21018C38.7659 6.21949 26.6176 22.3502 10.9839 37.9839C-4.64984 53.6177 -20.7806 65.766 -34.2103 72.7749C-40.9278 76.2808 -46.9436 78.487 -51.8675 79.2139C-56.8031 79.9424 -60.536 79.1727 -62.8317 76.877C-65.1274 74.5813 -65.8971 70.8484 -65.1685 65.9129C-64.4416 60.9889 -62.2354 54.9732 -58.7296 48.2556C-51.7207 34.8259 -39.5723 18.6952 -23.9386 3.06148C-8.3049 -12.5722 7.82586 -24.7206 21.2555 -31.7295C27.9731 -35.2354 33.9889 -37.4415 38.9128 -38.1684C43.8483 -38.897 47.5812 -38.1273 49.8769 -35.8316Z" stroke="white"/>
<path d="M422.669 71.6695C419.649 74.6903 415.299 76.157 409.951 76.1651C404.599 76.1731 398.287 74.719 391.412 71.9398C377.664 66.3823 361.763 55.564 346.988 40.789C332.213 26.014 321.395 10.113 315.837 -3.63465C313.058 -10.5095 311.604 -16.8223 311.612 -22.1735C311.62 -27.5217 313.087 -31.8716 316.108 -34.8924C319.128 -37.9132 323.478 -39.3799 328.827 -39.388C334.178 -39.3961 340.491 -37.9419 347.365 -35.1628C361.113 -29.6052 377.014 -18.787 391.789 -4.01195C406.564 10.7631 417.382 26.664 422.94 40.4117C425.719 47.2865 427.173 53.5994 427.165 58.9505C427.157 64.2988 425.69 68.6486 422.669 71.6695Z" fill="white" fill-opacity="0.12" stroke="white"/>
<g filter="url(#filter1_f_8_2730)">
<ellipse cx="36.5464" cy="38.3885" rx="75.8506" ry="32.1791" transform="rotate(52.7849 36.5464 38.3885)" fill="white" fill-opacity="0.2"/>
<path d="M82.1191 98.3955C78.717 100.979 74.2085 101.843 68.9084 101.127C63.6055 100.41 57.5478 98.1142 51.1128 94.4294C38.2446 87.0609 23.9556 74.1885 11.3181 57.5483C-1.31942 40.9081 -9.88407 23.6883 -13.5282 9.31455C-15.3506 2.12665 -15.9362 -4.32501 -15.2034 -9.62571C-14.4709 -14.9236 -12.4286 -19.0347 -9.02639 -21.6185C-5.62422 -24.2023 -1.11579 -25.0663 4.18429 -24.3498C9.48719 -23.633 15.5449 -21.3372 21.9799 -17.6524C34.8481 -10.2838 49.1371 2.58852 61.7746 19.2287C74.4122 35.8689 82.9768 53.0887 86.621 67.4625C88.4433 74.6504 89.0289 81.102 88.2961 86.4027C87.5637 91.7006 85.5213 95.8117 82.1191 98.3955Z" stroke="white"/>
</g>
<g filter="url(#filter2_d_8_2730)">
<path d="M37.2348 31.856H45.4528V33.34H37.2348V31.856ZM35.8068 36.518H47.5388V38.002H35.8068V36.518ZM44.3328 31.856H46.1668V32.892C46.1668 34.012 46.1668 35.216 45.7748 36.896L43.9268 36.868C44.3328 35.188 44.3328 33.998 44.3328 32.892V31.856ZM37.1788 39.36H46.1108V44.106H37.1788V39.36ZM44.2768 40.802H38.9988V42.636H44.2768V40.802ZM106.737 32.276H108.249V34.166C108.249 37.498 107.101 40.508 104.525 41.698L103.419 40.158C105.673 39.178 106.737 36.686 106.737 34.166V32.276ZM107.101 32.276H108.613V34.166C108.613 36.56 109.635 38.94 111.847 39.892L110.755 41.39C108.249 40.242 107.101 37.358 107.101 34.166V32.276ZM112.463 31.268H114.339V44.274H112.463V31.268ZM167.924 41.264H179.656V42.776H167.924V41.264ZM172.852 38.772H174.714V42.048H172.852V38.772ZM172.838 33.984H174.49V34.264C174.49 36.742 172.516 38.744 168.96 39.206L168.288 37.736C171.438 37.358 172.838 35.748 172.838 34.264V33.984ZM173.09 33.984H174.728V34.264C174.728 35.748 176.128 37.358 179.278 37.736L178.606 39.206C175.05 38.744 173.09 36.742 173.09 34.264V33.984ZM168.918 33.032H178.648V34.53H168.918V33.032ZM172.852 31.45H174.714V33.648H172.852V31.45ZM263.49 37.68H275.222V39.164H263.49V37.68ZM268.572 38.618H270.448V41.348H268.572V38.618ZM264.932 31.828H273.738V36.644H264.932V31.828ZM271.904 33.284H266.752V35.188H271.904V33.284ZM264.848 42.538H273.934V44.022H264.848V42.538ZM264.848 40.256H266.696V43.028H264.848V40.256Z" fill="#42B752"/>
<path d="M50.4357 32.514H51.8077V33.2C51.8077 34.698 50.9397 36.126 48.9517 36.616L48.1957 35.258C49.7077 34.908 50.4357 34.012 50.4357 33.2V32.514ZM50.9817 32.514H52.2837V33.172C52.2837 33.914 52.9977 34.754 54.3697 35.09L53.8237 36.448C51.7937 35.972 50.9817 34.53 50.9817 33.172V32.514ZM55.3637 32.514H56.6657V33.172C56.6657 34.544 55.8537 35.986 53.8237 36.448L53.2777 35.09C54.6497 34.754 55.3637 33.928 55.3637 33.172V32.514ZM55.8677 32.514H57.2397V33.2C57.2397 34.054 57.9537 34.922 59.4797 35.258L58.7097 36.616C56.7357 36.126 55.8677 34.74 55.8677 33.2V32.514ZM48.7557 31.73H53.5717V33.2H48.7557V31.73ZM54.0897 31.73H58.8917V33.2H54.0897V31.73ZM47.9717 37.498H59.7037V38.968H47.9717V37.498ZM52.8997 36.448H54.7617V38.66H52.8997V36.448ZM49.2457 40.004H58.2897V44.246H56.4277V41.474H49.2457V40.004ZM69.0406 31.268H70.9166V44.274H69.0406V31.268ZM63.9306 32.178C65.8906 32.178 67.3326 33.97 67.3326 36.798C67.3326 39.654 65.8906 41.446 63.9306 41.446C61.9706 41.446 60.5286 39.654 60.5286 36.798C60.5286 33.97 61.9706 32.178 63.9306 32.178ZM63.9306 33.872C62.9646 33.872 62.3066 34.894 62.3066 36.798C62.3066 38.73 62.9646 39.766 63.9306 39.766C64.8966 39.766 65.5406 38.73 65.5406 36.798C65.5406 34.894 64.8966 33.872 63.9306 33.872ZM78.5301 38.058H80.3921V40.606H78.5301V38.058ZM82.8561 38.044H84.7041V40.592H82.8561V38.044ZM75.7721 37.33H87.4901V38.8H75.7721V37.33ZM77.0741 39.99H86.0761V44.246H84.2141V41.446H77.0741V39.99ZM81.6381 31.534C84.4801 31.534 86.3281 32.514 86.3281 34.082C86.3281 35.664 84.4801 36.644 81.6381 36.644C78.7821 36.644 76.9481 35.664 76.9481 34.082C76.9481 32.514 78.7821 31.534 81.6381 31.534ZM81.6381 32.976C79.8601 32.976 78.8661 33.34 78.8661 34.082C78.8661 34.838 79.8601 35.202 81.6381 35.202C83.4021 35.202 84.4101 34.838 84.4101 34.082C84.4101 33.34 83.4021 32.976 81.6381 32.976ZM91.423 32.178C93.397 32.178 94.825 33.97 94.825 36.798C94.825 39.654 93.397 41.446 91.423 41.446C89.449 41.446 88.021 39.654 88.021 36.798C88.021 33.97 89.449 32.178 91.423 32.178ZM91.423 33.872C90.457 33.872 89.813 34.894 89.813 36.798C89.813 38.73 90.457 39.766 91.423 39.766C92.389 39.766 93.047 38.73 93.047 36.798C93.047 34.894 92.389 33.872 91.423 33.872ZM96.239 31.282H98.115V44.246H96.239V31.282ZM97.695 36.168H99.991V37.708H97.695V36.168ZM118.705 36.826H120.553V39.318H118.705V36.826ZM122.793 36.826H124.641V39.318H122.793V36.826ZM115.751 36.392H127.469V37.862H115.751V36.392ZM117.193 31.66H125.985V35.734H117.193V31.66ZM124.151 33.102H119.027V34.306H124.151V33.102ZM117.095 38.688H126.055V42.02H118.943V43.168H117.109V40.732H124.221V40.074H117.095V38.688ZM117.109 42.762H126.391V44.162H117.109V42.762ZM128.28 39.696H129.204C130.772 39.696 132.158 39.654 133.768 39.374L133.922 40.872C132.256 41.18 130.828 41.222 129.204 41.222H128.28V39.696ZM128.266 32.556H132.844V37.512H130.086V40.284H128.28V36.056H131.052V34.026H128.266V32.556ZM137.296 31.282H139.06V44.246H137.296V31.282ZM133.376 35.692H135.392V37.218H133.376V35.692ZM134.664 31.52H136.386V43.63H134.664V31.52ZM148.999 31.268H150.875V44.274H148.999V31.268ZM143.889 32.178C145.849 32.178 147.291 33.97 147.291 36.798C147.291 39.654 145.849 41.446 143.889 41.446C141.929 41.446 140.487 39.654 140.487 36.798C140.487 33.97 141.929 32.178 143.889 32.178ZM143.889 33.872C142.923 33.872 142.265 34.894 142.265 36.798C142.265 38.73 142.923 39.766 143.889 39.766C144.855 39.766 145.499 38.73 145.499 36.798C145.499 34.894 144.855 33.872 143.889 33.872ZM159.134 32.962H161.71V34.46H159.134V32.962ZM159.134 35.468H161.71V36.952H159.134V35.468ZM155.256 32.024H156.754V33.508C156.754 36.196 155.662 38.52 153.212 39.43L152.218 37.974C154.36 37.218 155.256 35.398 155.256 33.508V32.024ZM155.648 32.024H157.146V33.508C157.146 35.286 157.986 37.064 160.03 37.834L159.008 39.276C156.712 38.366 155.648 36.084 155.648 33.508V32.024ZM161.276 31.296H163.138V40.886H161.276V31.296ZM154.556 42.538H163.418V44.022H154.556V42.538ZM154.556 40.004H156.432V43.476H154.556V40.004ZM180.103 41.236H191.835V42.748H180.103V41.236ZM185.017 38.464H186.879V41.6H185.017V38.464ZM181.335 32.108H183.183V34.096H188.713V32.108H190.561V38.856H181.335V32.108ZM183.183 35.552V37.372H188.713V35.552H183.183ZM195.71 38.744H207.456V40.214H195.71V38.744ZM200.61 39.486H202.458V44.246H200.61V39.486ZM197.054 31.772H198.902V33.242H204.222V31.772H206.07V37.512H197.054V31.772ZM198.902 34.698V36.028H204.222V34.698H198.902ZM207.903 41.236H219.635V42.748H207.903V41.236ZM212.817 38.366H214.679V41.586H212.817V38.366ZM209.121 32.234H218.347V38.604H209.121V32.234ZM216.527 33.718H210.955V37.134H216.527V33.718ZM228.356 31.268H230.232V44.232H228.356V31.268ZM229.742 36.224H232.024V37.75H229.742V36.224ZM224.954 32.612H226.774C226.774 36.504 225.29 39.836 220.978 42.006L219.942 40.592C223.344 38.828 224.954 36.448 224.954 32.934V32.612ZM220.656 32.612H225.906V34.11H220.656V32.612ZM240.603 32.024H242.549C242.549 35.468 240.393 37.806 236.571 38.814L235.843 37.358C238.993 36.56 240.603 34.894 240.603 32.934V32.024ZM236.557 32.024H241.821V33.494H236.557V32.024ZM237.271 39.248H241.681V44.246H239.819V40.732H237.271V39.248ZM244.677 31.282H246.539V38.702H244.677V31.282ZM242.241 39.248H246.539V44.246H244.677V40.732H242.241V39.248ZM241.947 33.2H244.985V34.684H241.947V33.2ZM241.821 35.986H244.859V37.47H241.821V35.986ZM249.324 34.782H258.312V36.252H249.324V34.782ZM247.868 37.596H259.614V39.08H247.868V37.596ZM249.324 31.744H251.172V35.51H249.324V31.744ZM249.198 42.482H258.382V43.966H249.198V42.482ZM249.198 40.116H251.06V42.874H249.198V40.116ZM285.035 31.282H286.799V44.246H285.035V31.282ZM280.765 35.706H282.907V37.218H280.765V35.706ZM282.417 31.492H284.153V43.658H282.417V31.492ZM277.965 33.396H279.365V34.726C279.365 37.638 278.567 40.536 276.509 41.824L275.403 40.452C277.307 39.262 277.965 36.938 277.965 34.726V33.396ZM278.385 33.396H279.771V34.726C279.771 36.882 280.415 39.066 282.291 40.158L281.199 41.516C279.141 40.298 278.385 37.582 278.385 34.726V33.396ZM275.893 32.584H281.675V34.082H275.893V32.584ZM291.276 33.228H297.478V34.712H291.276V33.228ZM294.398 35.286C296.05 35.286 297.24 36.56 297.24 38.38C297.24 40.186 296.05 41.46 294.398 41.46C292.76 41.46 291.556 40.186 291.556 38.38C291.556 36.56 292.76 35.286 294.398 35.286ZM294.398 36.84C293.698 36.84 293.208 37.4 293.208 38.38C293.208 39.36 293.698 39.906 294.398 39.906C295.098 39.906 295.602 39.36 295.602 38.38C295.602 37.4 295.098 36.84 294.398 36.84ZM300.656 31.282H302.434V44.246H300.656V31.282ZM299.102 36.546H301.244V38.044H299.102V36.546ZM297.94 31.52H299.676V43.7H297.94V31.52ZM293.488 31.632H295.322V34.166H293.488V31.632ZM312.457 31.282H314.319V37.792H312.457V31.282ZM308.131 31.772H310.161C310.161 35.216 308.173 37.232 304.239 38.086L303.623 36.588C306.871 35.944 308.131 34.516 308.131 32.78V31.772ZM304.365 31.772H308.915V33.256H304.365V31.772ZM309.657 32.892H312.695V34.306H309.657V32.892ZM309.573 35.412H312.625V36.812H309.573V35.412ZM305.751 38.268H314.319V41.838H307.641V43.448H305.779V40.466H312.457V39.724H305.751V38.268ZM305.779 42.664H314.585V44.12H305.779V42.664ZM325.628 35.328H329.044V36.826H325.628V35.328ZM322.1 32.276H323.612V34.152C323.612 37.414 322.506 40.424 320.07 41.642L318.908 40.144C321.12 39.122 322.1 36.616 322.1 34.152V32.276ZM322.492 32.276H323.976V34.152C323.976 36.616 324.914 38.982 327.056 39.934L325.95 41.418C323.514 40.242 322.492 37.386 322.492 34.152V32.276ZM328.12 31.268H329.968V44.274H328.12V31.268ZM340.159 31.268H342.035V44.274H340.159V31.268ZM331.913 32.304H333.761V35.454H336.435V32.304H338.283V41.25H331.913V32.304ZM333.761 36.896V39.752H336.435V36.896H333.761ZM348.264 32.024H349.888V32.962C349.888 35.776 347.886 38.268 344.526 38.926L343.728 37.386C346.654 36.882 348.264 34.824 348.264 32.962V32.024ZM348.642 32.024H350.252V32.962C350.252 34.866 351.848 36.882 354.788 37.386L353.99 38.926C350.63 38.268 348.642 35.818 348.642 32.962V32.024ZM343.462 41.152H355.194V42.664H343.462V41.152Z" fill="white"/>
</g>
<path opacity="0.4" d="M288 76C291.947 50.9838 321.074 0.361081 406 -2" stroke="white"/>
<path d="M275 23L277 26H273L275 23Z" fill="white"/>
<path d="M275 29L277 26H273L275 29Z" fill="white"/>
<path d="M377 41L379 44H375L377 41Z" fill="white"/>
<path d="M377 47L379 44H375L377 47Z" fill="white"/>
<g filter="url(#filter3_f_8_2730)">
<circle cx="38" cy="28" r="1" fill="white"/>
</g>
<circle cx="168" cy="28" r="0.8" stroke="white" stroke-width="0.4"/>
<rect x="57" y="76" width="57" height="76" transform="rotate(180 57 76)" fill="url(#paint1_linear_8_2730)"/>
<rect x="333" width="57" height="76" fill="url(#paint2_linear_8_2730)"/>
<circle cx="109" cy="54" r="0.8" stroke="white" stroke-width="0.4"/>
<g filter="url(#filter4_f_8_2730)">
<circle cx="306" cy="64" r="1" fill="white"/>
</g>
<path d="M328 38V42" stroke="white" stroke-width="0.4"/>
<path d="M327 40H329" stroke="white" stroke-width="0.4"/>
<path d="M11 9V13" stroke="white" stroke-width="0.4"/>
<path d="M10 11H12" stroke="white" stroke-width="0.4"/>
</g>
<defs>
<filter id="filter0_f_8_2730" x="280.974" y="-10.3588" width="143.292" height="102.133" filterUnits="userSpaceOnUse" color-interpolation-filters="sRGB">
<feFlood flood-opacity="0" result="BackgroundImageFix"/>
<feBlend mode="normal" in="SourceGraphic" in2="BackgroundImageFix" result="shape"/>
<feGaussianBlur stdDeviation="2" result="effect1_foregroundBlur_8_2730"/>
</filter>
<filter id="filter1_f_8_2730" x="-20.0107" y="-29.0917" width="113.114" height="134.96" filterUnits="userSpaceOnUse" color-interpolation-filters="sRGB">
<feFlood flood-opacity="0" result="BackgroundImageFix"/>
<feBlend mode="normal" in="SourceGraphic" in2="BackgroundImageFix" result="shape"/>
<feGaussianBlur stdDeviation="2" result="effect1_foregroundBlur_8_2730"/>
</filter>
<filter id="filter2_d_8_2730" x="33.8068" y="29.2679" width="327.387" height="21.0061" filterUnits="userSpaceOnUse" color-interpolation-filters="sRGB">
<feFlood flood-opacity="0" result="BackgroundImageFix"/>
<feColorMatrix in="SourceAlpha" type="matrix" values="0 0 0 0 0 0 0 0 0 0 0 0 0 0 0 0 0 0 127 0" result="hardAlpha"/>
<feOffset dx="2" dy="2"/>
<feGaussianBlur stdDeviation="2"/>
<feComposite in2="hardAlpha" operator="out"/>
<feColorMatrix type="matrix" values="0 0 0 0 0 0 0 0 0 0 0 0 0 0 0 0 0 0 0.12 0"/>
<feBlend mode="normal" in2="BackgroundImageFix" result="effect1_dropShadow_8_2730"/>
<feBlend mode="normal" in="SourceGraphic" in2="effect1_dropShadow_8_2730" result="shape"/>
</filter>
<filter id="filter3_f_8_2730" x="36" y="26" width="4" height="4" filterUnits="userSpaceOnUse" color-interpolation-filters="sRGB">
<feFlood flood-opacity="0" result="BackgroundImageFix"/>
<feBlend mode="normal" in="SourceGraphic" in2="BackgroundImageFix" result="shape"/>
<feGaussianBlur stdDeviation="0.5" result="effect1_foregroundBlur_8_2730"/>
</filter>
<filter id="filter4_f_8_2730" x="304" y="62" width="4" height="4" filterUnits="userSpaceOnUse" color-interpolation-filters="sRGB">
<feFlood flood-opacity="0" result="BackgroundImageFix"/>
<feBlend mode="normal" in="SourceGraphic" in2="BackgroundImageFix" result="shape"/>
<feGaussianBlur stdDeviation="0.5" result="effect1_foregroundBlur_8_2730"/>
</filter>
<linearGradient id="paint0_linear_8_2730" x1="-1.53744e-06" y1="70.5" x2="390" y2="1.39534e-05" gradientUnits="userSpaceOnUse">
<stop stop-color="#96E6A1"/>
<stop offset="1" stop-color="#D8F694"/>
</linearGradient>
<linearGradient id="paint1_linear_8_2730" x1="114" y1="76" x2="65" y2="93" gradientUnits="userSpaceOnUse">
<stop stop-color="white"/>
<stop offset="1" stop-color="#D9D9D9" stop-opacity="0"/>
</linearGradient>
<linearGradient id="paint2_linear_8_2730" x1="390" y1="0" x2="341" y2="17" gradientUnits="userSpaceOnUse">
<stop stop-color="white"/>
<stop offset="1" stop-color="#D9D9D9" stop-opacity="0"/>
</linearGradient>
<clipPath id="clip0_8_2730">
<rect width="390" height="76" fill="white"/>
</clipPath>
</defs>
</svg>
